<svg width="17" height="22" fill="none" xmlns="http://www.w3.org/2000/svg"><path d="M16.39 8.98c.315-2.317-1.36-3.503-3.663-4.365l.733-3.125-1.832-.431-.732 3.017c-.471-.108-.995-.215-1.466-.377l.733-3.071L8.331.143 7.6 3.268c-.42-.108-3.716-.97-3.716-.97l-.471 1.994s1.36.323 1.308.323c.733.216.89.7.838 1.078l-2.042 8.513c-.104.216-.314.593-.837.431 0 .054-1.36-.323-1.36-.323l-.89 2.155s3.297.862 3.715.97l-.785 3.125 1.832.485.733-3.125c.523.161.994.27 1.465.377l-.732 3.071 1.831.485.785-3.125c3.14.593 5.495.377 6.49-2.532.785-2.371-.053-3.718-1.675-4.58 1.152-.108 2.041-.916 2.303-2.64zm-4.186 6.088c-.576 2.37-4.396 1.078-5.652.754l.994-4.148c1.256.323 5.234.915 4.658 3.394zm.576-6.089c-.524 2.156-3.716 1.078-4.763.809l.89-3.772c1.047.215 4.396.7 3.873 2.963z" fill="#fff"/></svg>