<svg width="24" height="24" fill="none" xmlns="http://www.w3.org/2000/svg"><path d="M12 12h-.75c0 .199.08.39.22.53L12 12zm0 10.45C6.23 22.45 1.55 17.771 1.55 12H.05c0 6.6 5.351 11.95 11.95 11.95v-1.5zM22.45 12c0 5.771-4.678 10.45-10.45 10.45v1.5c6.6 0 11.95-5.35 11.95-11.95h-1.5zM12 1.55c5.772 0 10.45 4.679 10.45 10.45h1.5C23.95 5.4 18.6.05 12 .05v1.5zm0-1.5C5.402.05.05 5.4.05 12h1.5C1.55 6.229 6.23 1.55 12 1.55V.05zm-.75 4.75V12h1.5V4.8h-1.5zm.22 7.73l4.8 4.8 1.061-1.06-4.8-4.8-1.06 1.06z" fill="#fff"/></svg>