<svg width="20" height="20" fill="none" xmlns="http://www.w3.org/2000/svg"><path d="M13.927.286H6.074A5.794 5.794 0 00.286 6.074v7.852a5.794 5.794 0 005.788 5.788h7.853a5.794 5.794 0 005.788-5.788V6.074A5.794 5.794 0 0013.927.286zm3.833 13.64a3.833 3.833 0 01-3.833 3.834H6.074a3.833 3.833 0 01-3.833-3.834V6.074A3.833 3.833 0 016.074 2.24h7.853a3.833 3.833 0 013.833 3.834v7.852z" fill="#fff"/><path d="M10 4.975A5.03 5.03 0 004.977 10 5.03 5.03 0 0010 15.025 5.03 5.03 0 0015.024 10 5.03 5.03 0 0010 4.975zm0 8.095a3.07 3.07 0 110-6.14 3.07 3.07 0 010 6.14zm5.035-6.853a1.204 1.204 0 100-2.408 1.204 1.204 0 000 2.408z" fill="#fff"/></svg>