<svg width="18" height="16" fill="none" xmlns="http://www.w3.org/2000/svg"><path d="M17.572 15.216l-1.283-1.344c-.135-.07-.202-.283-.202-.424V2.694a.78.78 0 01.202-.495L17.572.642v-.07h-4.59L9.54 9.697 5.626.571H.9v.071l1.215 1.769c.27.283.337.707.337 1.061v7.782c.068.425 0 .92-.202 1.345L.429 15.216v.071h4.86v-.07l-1.823-2.548a2.271 2.271 0 01-.203-1.344V4.25c.068.142.135.142.203.425l4.59 10.754h.067l4.454-11.674c-.067.425-.067.92-.067 1.274v8.348a.657.657 0 01-.203.495l-1.35 1.344v.071h6.615v-.07z" fill="#fff"/></svg>