<svg width="24" height="21" fill="none" xmlns="http://www.w3.org/2000/svg"><path fill-rule="evenodd" clip-rule="evenodd" d="M22.71 9.66c.27.385.424.84.44 1.31a2.44 2.44 0 01-1.353 2.224 4.8 4.8 0 010 .735c0 3.744-4.362 6.785-9.743 6.785-5.382 0-9.744-3.041-9.744-6.785a4.795 4.795 0 010-.735A2.44 2.44 0 115 9.199a11.933 11.933 0 016.519-2.055l1.236-5.8a.518.518 0 01.619-.4l4.094.818a1.671 1.671 0 11-.217 1.02l-3.576-.753-1.087 5.215A11.9 11.9 0 0119.023 9.3a2.44 2.44 0 013.688.36zm-6.855 4.651a1.67 1.67 0 100-3.34 1.67 1.67 0 000 3.34zm-6.071-1.67a1.67 1.67 0 11-3.34 0 1.67 1.67 0 013.34 0zm5.258 5.298c-.683.31-1.691.61-3.022.602-1.34.01-2.353-.29-3.04-.602a5.133 5.133 0 01-.78-.435 3.424 3.424 0 01-.262-.198l-.017-.015-.005-.005-.002-.001-.001-.001a.453.453 0 01.61-.668l.006.004.032.027c.031.025.081.063.15.11.139.095.353.226.644.358.576.262 1.457.528 2.649.521 1.2.01 2.085-.258 2.665-.521.29-.132.504-.263.643-.358a2.526 2.526 0 00.183-.137l.005-.005a.453.453 0 01.611.668l-.002.001-.002.002-.005.005-.017.015a3.415 3.415 0 01-.261.198c-.178.122-.438.28-.782.435z" fill="#fff"/></svg>