<svg width="19" height="17" fill="none" xmlns="http://www.w3.org/2000/svg"><path d="M1.4 7.46c4.908-2.26 8.18-3.748 9.819-4.467C15.895.94 16.867.584 17.499.572c.14-.003.452.034.653.206.17.146.218.343.24.482.022.138.05.453.028.7-.253 2.81-1.35 9.632-1.908 12.78-.236 1.333-.7 1.78-1.15 1.824-.978.095-1.72-.683-2.668-1.338-1.481-1.026-2.319-1.664-3.757-2.665-1.663-1.157-.585-1.793.363-2.832.247-.271 4.556-4.409 4.64-4.784.01-.047.02-.222-.08-.314-.098-.093-.243-.061-.348-.036-.149.035-2.516 1.688-7.102 4.956-.672.487-1.28.725-1.826.712-.601-.013-1.758-.359-2.617-.654C.912 9.248.074 9.056.147 8.442c.038-.32.456-.648 1.253-.983z" fill="#fff"/></svg>