<svg width="19" height="16" fill="none" xmlns="http://www.w3.org/2000/svg"><path d="M16.872 4.423V4.9c0 4.952-3.782 10.67-10.675 10.67a10.78 10.78 0 01-5.768-1.674c.287.024.598.048.885.048a7.597 7.597 0 004.667-1.603 3.714 3.714 0 01-3.494-2.608c.24.048.455.072.718.072.335 0 .67-.048.981-.144a3.724 3.724 0 01-3.015-3.66v-.048a3.688 3.688 0 001.699.478 3.757 3.757 0 01-1.675-3.134c0-.694.191-1.34.502-1.89a10.677 10.677 0 007.731 3.924 3.396 3.396 0 01-.096-.862A3.748 3.748 0 0113.09.714c1.077 0 2.058.455 2.728 1.173a7.628 7.628 0 002.394-.91A3.866 3.866 0 0116.56 3.06a7.19 7.19 0 002.154-.598 6.856 6.856 0 01-1.842 1.962z" fill="#fff"/></svg>