<svg width="20" height="13" fill="none" xmlns="http://www.w3.org/2000/svg"><path fill-rule="evenodd" clip-rule="evenodd" d="M19.269 1.631c.135-.446 0-.774-.643-.774h-2.125c-.54 0-.79.283-.925.596 0 0-1.08 2.61-2.612 4.304-.496.49-.72.647-.991.647-.135 0-.33-.156-.33-.602V1.63c0-.535-.158-.774-.608-.774h-3.34c-.338 0-.54.249-.54.484 0 .508.765.625.844 2.052v3.1c0 .68-.124.803-.394.803-.721 0-2.474-2.621-3.513-5.62-.204-.583-.408-.819-.952-.819H1.015c-.607 0-.729.283-.729.596 0 .557.72 3.323 3.355 6.98 1.757 2.498 4.231 3.853 6.483 3.853 1.351 0 1.518-.301 1.518-.82V9.58c0-.602.128-.722.556-.722.316 0 .856.157 2.117 1.36 1.441 1.428 1.678 2.069 2.49 2.069h2.125c.607 0 .91-.301.736-.895-.192-.591-.88-1.45-1.793-2.467-.496-.58-1.239-1.204-1.464-1.516-.315-.402-.225-.58 0-.937 0 0 2.59-3.613 2.86-4.84z" fill="#fff"/></svg>