<svg width="17" height="22" viewBox="0 0 17 22" fill="none" xmlns="http://www.w3.org/2000/svg">
<path d="M16.3908 8.97944C16.7048 6.66253 15.0301 5.47713 12.7274 4.61503L13.4601 1.48989L11.6284 1.05884L10.8957 4.07621C10.4247 3.96845 9.90131 3.86068 9.4303 3.69904L10.163 0.627787L8.33127 0.142853L7.59858 3.26799C7.1799 3.16022 3.88281 2.29812 3.88281 2.29812L3.41179 4.29174C3.41179 4.29174 4.7725 4.61503 4.72016 4.61503C5.45285 4.83055 5.60986 5.31549 5.55752 5.69266L3.51646 14.206C3.41179 14.4215 3.20246 14.7987 2.67911 14.637C2.67911 14.6909 1.3184 14.3137 1.3184 14.3137L0.428711 16.469C0.428711 16.469 3.7258 17.3311 4.14448 17.4388L3.35946 20.564L5.19118 21.0489L5.92387 17.9238C6.44721 18.0854 6.91823 18.1932 7.38924 18.301L6.65655 21.3722L8.48827 21.8571L9.27329 18.732C12.4134 19.3247 14.7684 19.1092 15.7628 16.1996C16.5478 13.8288 15.7105 12.4817 14.0881 11.6196C15.2395 11.5119 16.1292 10.7036 16.3908 8.97944ZM12.204 15.0681C11.6284 17.4389 7.80792 16.1457 6.55188 15.8224L7.54624 11.6735C8.80228 11.9968 12.7797 12.5895 12.204 15.0681ZM12.7797 8.97944C12.2564 11.1347 9.06395 10.0571 8.01726 9.78766L8.90695 6.01595C9.95364 6.23147 13.3031 6.71641 12.7797 8.97944Z" fill="white"/>
</svg>
