<svg width="24" height="24" viewBox="0 0 24 24" fill="none" xmlns="http://www.w3.org/2000/svg">
<path d="M12.0008 12H11.2508C11.2508 12.1989 11.3298 12.3897 11.4705 12.5303L12.0008 12ZM12.0008 22.45C6.22941 22.45 1.55078 17.7714 1.55078 12H0.0507812C0.0507812 18.5998 5.40098 23.95 12.0008 23.95V22.45ZM22.4508 12C22.4508 17.7714 17.7722 22.45 12.0008 22.45V23.95C18.6006 23.95 23.9508 18.5998 23.9508 12H22.4508ZM12.0008 1.54999C17.7722 1.54999 22.4508 6.22861 22.4508 12H23.9508C23.9508 5.40019 18.6006 0.0499878 12.0008 0.0499878V1.54999ZM12.0008 0.0499878C5.40098 0.0499878 0.0507812 5.40019 0.0507812 12H1.55078C1.55078 6.22861 6.22941 1.54999 12.0008 1.54999V0.0499878ZM11.2508 4.79999V12H12.7508V4.79999H11.2508ZM11.4705 12.5303L16.2705 17.3303L17.3311 16.2697L12.5311 11.4697L11.4705 12.5303Z" fill="white"/>
</svg>
