<svg width="20" height="20" viewBox="0 0 20 20" fill="none" xmlns="http://www.w3.org/2000/svg">
<path d="M13.9267 0.285713H6.07395C2.88254 0.285713 0.286133 2.88212 0.286133 6.07353V13.9263C0.286133 17.1177 2.88254 19.7141 6.07395 19.7141H13.9267C17.1181 19.7141 19.7145 17.1177 19.7145 13.9263V6.07353C19.7145 2.88212 17.1181 0.285713 13.9267 0.285713ZM17.76 13.9263C17.76 16.0433 16.0438 17.7596 13.9267 17.7596H6.07395C3.95688 17.7596 2.24063 16.0433 2.24063 13.9263V6.07353C2.24063 3.95643 3.95688 2.24021 6.07395 2.24021H13.9267C16.0438 2.24021 17.76 3.95643 17.76 6.07353V13.9263Z" fill="white"/>
<path d="M10.0005 4.97504C7.22974 4.97504 4.97559 7.22919 4.97559 9.99987C4.97559 12.7706 7.22974 15.0247 10.0005 15.0247C12.7712 15.0247 15.0253 12.7706 15.0253 9.99987C15.0253 7.22915 12.7712 4.97504 10.0005 4.97504ZM10.0005 13.0703C8.30472 13.0703 6.93008 11.6956 6.93008 9.99991C6.93008 8.30417 8.30476 6.92953 10.0005 6.92953C11.6962 6.92953 13.0708 8.30417 13.0708 9.99991C13.0708 11.6956 11.6962 13.0703 10.0005 13.0703Z" fill="white"/>
<path d="M15.0351 6.21693C15.7001 6.21693 16.2392 5.67785 16.2392 5.01287C16.2392 4.34788 15.7001 3.80881 15.0351 3.80881C14.3701 3.80881 13.8311 4.34788 13.8311 5.01287C13.8311 5.67785 14.3701 6.21693 15.0351 6.21693Z" fill="white"/>
</svg>
