<svg width="18" height="16" viewBox="0 0 18 16" fill="none" xmlns="http://www.w3.org/2000/svg">
<path d="M17.5716 15.2163L16.2892 13.8721C16.1542 13.8014 16.0868 13.5891 16.0868 13.4476V2.69388C16.0868 2.55238 16.1542 2.34013 16.2892 2.19864L17.5716 0.642174V0.571426H12.9821L9.54007 9.69796L5.62556 0.571426H0.901152V0.642174L2.116 2.41088C2.38597 2.69387 2.45346 3.11836 2.45346 3.47211V11.2544C2.52095 11.6789 2.45346 12.1741 2.25098 12.5986L0.428711 15.2163V15.2871H5.2881V15.2163L3.46583 12.6694C3.26336 12.2449 3.19586 11.8204 3.26336 11.3252V4.25034C3.33085 4.39183 3.39834 4.39183 3.46583 4.67483L8.05526 15.4286H8.12275L12.5772 3.7551C12.5097 4.17959 12.5097 4.67483 12.5097 5.02857V13.3769C12.5097 13.5891 12.4422 13.7306 12.3072 13.8721L10.9574 15.2163V15.2871H17.5716V15.2163Z" fill="white"/>
</svg>
