<svg width="24" height="21" viewBox="0 0 24 21" fill="none" xmlns="http://www.w3.org/2000/svg">
<path fill-rule="evenodd" clip-rule="evenodd" d="M22.7105 9.65944C22.9807 10.0449 23.1336 10.5003 23.1508 10.9708C23.1579 11.4313 23.0346 11.8844 22.795 12.2777C22.5555 12.6711 22.2095 12.9886 21.7971 13.1936C21.8159 13.4383 21.8159 13.6842 21.7971 13.9289C21.7971 17.6726 17.4351 20.7143 12.0536 20.7143C6.67207 20.7143 2.31005 17.6726 2.31005 13.9289C2.29123 13.6842 2.29123 13.4383 2.31005 13.1936C1.98859 13.0459 1.7031 12.8301 1.47334 12.5611C1.24359 12.2921 1.07507 11.9763 0.979467 11.6357C0.883864 11.2952 0.863462 10.9378 0.919675 10.5886C0.975889 10.2393 1.10737 9.90646 1.30502 9.61306C1.50266 9.31967 1.76173 9.07275 2.06429 8.88944C2.36684 8.70612 2.70564 8.59078 3.0572 8.55141C3.40876 8.51205 3.76467 8.54959 4.10028 8.66145C4.43588 8.77331 4.74315 8.9568 5.0008 9.19922C6.92656 7.89316 9.19215 7.17863 11.5188 7.14355L12.7555 1.34424C12.7694 1.2771 12.7965 1.21339 12.8352 1.15679C12.8739 1.1002 12.9234 1.05184 12.9809 1.01453C13.0384 0.977223 13.1028 0.951701 13.1702 0.939445C13.2377 0.927189 13.3069 0.928442 13.3739 0.943133L17.4685 1.76206C17.6685 1.41851 17.9843 1.15748 18.3594 1.02582C18.7345 0.894171 19.1442 0.900517 19.515 1.04372C19.8858 1.18693 20.1934 1.45761 20.3827 1.80719C20.5719 2.15677 20.6303 2.56235 20.5475 2.95112C20.4646 3.3399 20.2459 3.68641 19.9306 3.92847C19.6153 4.17052 19.224 4.29226 18.827 4.27184C18.4301 4.25141 18.0534 4.09016 17.7645 3.81703C17.4757 3.54389 17.2937 3.17676 17.2512 2.78153L13.6747 2.02946L12.5884 7.24383C14.8867 7.29313 17.1216 8.00713 19.0228 9.2995C19.3624 8.97353 19.7891 8.75276 20.2513 8.66381C20.7136 8.57487 21.1917 8.62153 21.6281 8.79819C22.0644 8.97485 22.4403 9.27395 22.7105 9.65944ZM15.8554 14.3112C16.7778 14.3112 17.5255 13.5635 17.5255 12.641C17.5255 11.7186 16.7778 10.9709 15.8554 10.9709C14.9329 10.9709 14.1852 11.7186 14.1852 12.641C14.1852 13.5635 14.9329 14.3112 15.8554 14.3112ZM9.78378 12.641C9.78378 13.5635 9.03601 14.3112 8.11359 14.3112C7.19117 14.3112 6.44341 13.5635 6.44341 12.641C6.44341 11.7186 7.19117 10.9709 8.11359 10.9709C9.03601 10.9709 9.78378 11.7186 9.78378 12.641ZM15.0424 17.9393C14.3589 18.2493 13.351 18.5485 12.0197 18.5413V18.5413C10.6805 18.5511 9.66711 18.2507 8.98086 17.9395C8.63761 17.7839 8.37729 17.6261 8.19953 17.5042C8.11064 17.4432 8.04231 17.3912 7.99448 17.3528C7.97056 17.3336 7.95176 17.3178 7.93806 17.306L7.92133 17.2914L7.91583 17.2865L7.91379 17.2846L7.91296 17.2839L7.91224 17.2832C7.72817 17.1141 7.71608 16.8277 7.88523 16.6437C8.05403 16.46 8.33955 16.4475 8.52366 16.6156L8.52309 16.6151L8.52856 16.6199C8.53459 16.6251 8.5454 16.6342 8.56097 16.6467C8.59212 16.6717 8.6423 16.7101 8.71151 16.7576C8.84998 16.8525 9.0643 16.9834 9.35473 17.1151C9.93127 17.3765 10.8122 17.6434 12.0035 17.6362V17.6359C13.2031 17.6456 14.0894 17.3775 14.6685 17.1149C14.959 16.9832 15.1733 16.8523 15.3117 16.7574C15.381 16.7099 15.4311 16.6715 15.4623 16.6465C15.4779 16.634 15.4887 16.6249 15.4947 16.6197L15.5002 16.6149L15.4996 16.6154C15.6837 16.4474 15.9692 16.4598 16.138 16.6435C16.3072 16.8275 16.2951 17.1139 16.111 17.283L16.1103 17.2837L16.1095 17.2844L16.1074 17.2863L16.1019 17.2912L16.0852 17.3058C16.0715 17.3176 16.0527 17.3334 16.0288 17.3526C15.981 17.391 15.9126 17.443 15.8237 17.504C15.646 17.6259 15.3857 17.7837 15.0424 17.9393Z" fill="white"/>
</svg>
