<svg width="19" height="17" viewBox="0 0 19 17" fill="none" xmlns="http://www.w3.org/2000/svg">
<path d="M1.39963 7.45939C6.30815 5.20143 9.58127 3.71285 11.219 2.99364C15.895 0.940157 16.8666 0.583445 17.4999 0.571541C17.6392 0.569076 17.9506 0.605522 18.1524 0.778355C18.3227 0.924292 18.3696 1.12143 18.392 1.2598C18.4144 1.39816 18.4424 1.71336 18.4202 1.95964C18.1668 4.77071 17.0703 11.5924 16.5125 14.7409C16.2765 16.0731 15.8118 16.5198 15.3618 16.5635C14.384 16.6585 13.6415 15.8812 12.6945 15.2258C11.2126 14.2001 10.3754 13.5616 8.9369 12.5608C7.27449 11.4041 8.35216 10.7684 9.29956 9.72947C9.5475 9.45757 13.8557 5.32018 13.9391 4.94485C13.9495 4.89791 13.9592 4.72294 13.8607 4.63055C13.7623 4.53816 13.617 4.56975 13.5121 4.59488C13.3635 4.6305 10.9961 6.28262 6.40988 9.55125C5.7379 10.0384 5.12924 10.2758 4.5839 10.2634C3.98271 10.2497 2.82626 9.90448 1.96656 9.60943C0.912096 9.24753 0.0740314 9.05619 0.147008 8.44158C0.185019 8.12145 0.602558 7.79405 1.39963 7.45939Z" fill="white"/>
</svg>
