<svg width="19" height="16" viewBox="0 0 19 16" fill="none" xmlns="http://www.w3.org/2000/svg">
<path d="M16.8715 4.42259C16.8715 4.59006 16.8715 4.75753 16.8715 4.90108C16.8715 9.85346 13.0899 15.5714 6.19685 15.5714C4.06671 15.5714 2.1041 14.9494 0.428711 13.8967C0.715921 13.9206 1.02707 13.9446 1.31428 13.9446C3.06147 13.9446 4.68899 13.3464 5.98144 12.3416C4.32998 12.3177 2.9418 11.2172 2.48705 9.73384C2.72639 9.78169 2.9418 9.80561 3.20508 9.80561C3.54015 9.80561 3.87523 9.75776 4.18638 9.66206C2.46312 9.32712 1.17067 7.81987 1.17067 6.00161C1.17067 5.97768 1.17067 5.97768 1.17067 5.95376C1.67329 6.24085 2.24771 6.40832 2.87 6.43225C1.86476 5.76236 1.1946 4.61398 1.1946 3.29813C1.1946 2.60432 1.38608 1.95836 1.69722 1.40809C3.54015 3.68093 6.31652 5.16425 9.42796 5.33172C9.35616 5.06855 9.33223 4.75753 9.33223 4.47044C9.33223 2.389 11.0076 0.714283 13.0899 0.714283C14.1669 0.714283 15.1482 1.16885 15.8184 1.88659C16.68 1.71911 17.4698 1.40809 18.2118 0.977453C17.9246 1.86266 17.3262 2.5804 16.5603 3.05889C17.3262 2.96319 18.0443 2.77179 18.7144 2.46077C18.2357 3.22636 17.6135 3.89625 16.8715 4.42259Z" fill="white"/>
</svg>
