<svg width="20" height="13" viewBox="0 0 20 13" fill="none" xmlns="http://www.w3.org/2000/svg">
<path fill-rule="evenodd" clip-rule="evenodd" d="M19.2689 1.63097C19.4041 1.18496 19.2689 0.85714 18.6261 0.85714H16.5006C15.9601 0.85714 15.7112 1.1403 15.576 1.45263C15.576 1.45263 14.4951 4.0621 12.9638 5.75714C12.4684 6.24782 12.2433 6.40376 11.973 6.40376C11.8379 6.40376 11.6424 6.24782 11.6424 5.8018V1.63097C11.6424 1.09564 11.4855 0.85714 11.0351 0.85714H7.695C7.35735 0.85714 7.15422 1.10556 7.15422 1.34105C7.15422 1.84857 7.9197 1.96556 7.99865 3.39293V6.49323C7.99865 7.17293 7.87476 7.29624 7.60452 7.29624C6.88398 7.29624 5.13135 4.67488 4.09168 1.67564C3.88794 1.09263 3.68359 0.85714 3.14037 0.85714H1.01487C0.40759 0.85714 0.286133 1.1403 0.286133 1.45263C0.286133 2.01022 1.00683 4.77594 3.64138 8.43368C5.39795 10.9314 7.87233 12.2857 10.1241 12.2857C11.4754 12.2857 11.6424 11.985 11.6424 11.4669V9.57894C11.6424 8.97744 11.7703 8.85744 12.198 8.85744C12.5135 8.85744 13.0538 9.01353 14.315 10.2179C15.7561 11.6451 15.9935 12.2857 16.8043 12.2857H18.9298C19.5371 12.2857 19.8407 11.985 19.6655 11.3914C19.4739 10.7998 18.7858 9.9418 17.8728 8.92436C17.3774 8.34436 16.6342 7.71985 16.4092 7.40767C16.0939 7.00616 16.1839 6.82782 16.4092 6.47112C16.4092 6.47112 18.9987 2.85789 19.2689 1.63113V1.63097Z" fill="white"/>
</svg>
